<svg width="48" height="48" viewBox="0 0 48 48" fill="none" xmlns="http://www.w3.org/2000/svg">
<rect width="48" height="48" rx="24" fill="url(#paint0_linear_253_15752)"/>
<path d="M31 15C32.1046 15 33 15.8954 33 17V31C33 32.1046 32.1046 33 31 33H17C15.8954 33 15 32.1046 15 31V17C15 15.8954 15.8954 15 17 15H31ZM17 31H31V17H29V18C29 19.6568 27.6569 21 26 21H22C20.3432 21 19 19.6568 19 18V17H17V31ZM28 27.0664C28.5523 27.0664 28.9999 27.5141 29 28.0664C29 28.6187 28.5523 29.0664 28 29.0664H20.041C19.4887 29.0664 19.041 28.6187 19.041 28.0664C19.0411 27.5141 19.4888 27.0664 20.041 27.0664H28ZM27.96 23C28.512 23.0002 28.96 23.4479 28.96 24C28.96 24.5521 28.512 24.9998 27.96 25H20C19.4477 25 19 24.5523 19 24C19 23.4477 19.4477 23 20 23H27.96ZM21 18C21 18.5523 21.4477 19 22 19H26C26.5523 19 27 18.5523 27 18V17H21V18Z" fill="white"/>
<defs>
<linearGradient id="paint0_linear_253_15752" x1="48" y1="0" x2="0" y2="48" gradientUnits="userSpaceOnUse">
<stop stop-color="#BB65FF"/>
<stop offset="1" stop-color="#4C6FFF"/>
</linearGradient>
</defs>
</svg>
