<svg width="172" height="62" viewBox="0 0 172 62" fill="none" xmlns="http://www.w3.org/2000/svg">
<path d="M38.9559 60.5909C55.2259 60.5909 68.4153 47.658 68.4153 31.7045C68.4153 15.751 55.2259 2.81818 38.9559 2.81818C22.686 2.81818 9.49656 15.751 9.49656 31.7045C9.49656 47.658 22.686 60.5909 38.9559 60.5909Z" fill="#D2DBF3"/>
<path d="M82.086 26.9273C81.6392 26.9403 81.2909 26.8243 81.0413 26.5794C80.7917 26.3346 80.6668 26.019 80.6668 25.6323C80.6668 25.336 80.7588 25.0783 80.9427 24.8593C81.1136 24.6274 81.3698 24.5049 81.7115 24.4921L82.283 24.4535C82.8087 24.4148 83.2029 24.2667 83.4657 24.0089C83.7285 23.7512 83.8599 23.3582 83.8599 22.8299V14.4998C83.8599 14.0102 83.9914 13.6366 84.2541 13.3789C84.5169 13.1083 84.8914 12.973 85.3777 12.973C85.8769 12.973 86.258 13.1083 86.5209 13.3789C86.7837 13.6366 86.915 14.0102 86.915 14.4998V22.7913C86.915 23.6417 86.7574 24.3632 86.442 24.956C86.1398 25.5358 85.6799 25.9867 85.0623 26.3089C84.4446 26.631 83.6826 26.8243 82.7758 26.8887L82.086 26.9273ZM94.4657 26.9854C93.3225 26.9854 92.337 26.7855 91.5091 26.3862C90.6943 25.9739 90.0636 25.4004 89.6168 24.666C89.1833 23.9188 88.9664 23.0426 88.9664 22.0375C88.9664 21.0583 89.1767 20.2014 89.5971 19.467C90.0176 18.7196 90.6023 18.1398 91.3513 17.7275C92.1135 17.3024 92.9742 17.0897 93.9335 17.0897C94.6299 17.0897 95.2607 17.2057 95.8257 17.4376C96.3908 17.6566 96.877 17.9787 97.2843 18.404C97.6917 18.8163 98.0005 19.3253 98.2108 19.9309C98.421 20.5235 98.526 21.1871 98.526 21.9215C98.526 22.1664 98.4473 22.3533 98.2895 22.482C98.1319 22.598 97.9019 22.6559 97.5997 22.6559H91.4105V21.1485H96.3777L96.0622 21.419C96.0622 20.8908 95.9834 20.4527 95.8257 20.1048C95.6681 19.744 95.4381 19.4734 95.1359 19.293C94.8468 19.1126 94.4854 19.0224 94.0518 19.0224C93.5655 19.0224 93.1517 19.1319 92.8099 19.351C92.4683 19.57 92.2055 19.8858 92.0216 20.2981C91.8376 20.7104 91.7457 21.2064 91.7457 21.7862V21.941C91.7457 22.9201 91.9756 23.6417 92.4354 24.1056C92.9085 24.5695 93.605 24.8013 94.5249 24.8013C94.8402 24.8013 95.2016 24.7627 95.6089 24.6854C96.0163 24.6081 96.3974 24.4856 96.7522 24.3181C97.0544 24.1765 97.3238 24.1314 97.5602 24.1828C97.7968 24.2216 97.9808 24.3246 98.1122 24.4921C98.2435 24.6597 98.3158 24.8528 98.329 25.072C98.3553 25.2909 98.3093 25.51 98.1911 25.729C98.0728 25.9352 97.8756 26.1092 97.5997 26.2509C97.153 26.4957 96.647 26.6761 96.0819 26.792C95.5301 26.921 94.9914 26.9854 94.4657 26.9854ZM103.963 26.9854C103.385 26.9854 102.787 26.9338 102.169 26.8306C101.565 26.7276 101.013 26.5536 100.513 26.3089C100.251 26.1801 100.06 26.019 99.9418 25.8257C99.8368 25.6195 99.7908 25.4134 99.8039 25.2072C99.8171 25.0011 99.8828 24.8142 100.001 24.6467C100.132 24.4791 100.297 24.3697 100.494 24.3181C100.704 24.2537 100.934 24.273 101.184 24.3761C101.722 24.5951 102.215 24.7498 102.662 24.84C103.109 24.9302 103.549 24.9753 103.983 24.9753C104.548 24.9753 104.955 24.8916 105.205 24.724C105.468 24.5437 105.599 24.3117 105.599 24.0282C105.599 23.7705 105.514 23.5773 105.343 23.4484C105.172 23.3196 104.922 23.2294 104.594 23.1779L102.524 22.8106C101.709 22.6689 101.079 22.379 100.632 21.941C100.198 21.4899 99.9813 20.9165 99.9813 20.2207C99.9813 19.5765 100.165 19.0224 100.533 18.5586C100.901 18.0819 101.407 17.721 102.051 17.4762C102.708 17.2185 103.45 17.0897 104.278 17.0897C104.87 17.0897 105.415 17.1413 105.914 17.2443C106.414 17.3475 106.893 17.5149 107.353 17.7468C107.59 17.8628 107.754 18.0175 107.846 18.2107C107.951 18.404 107.984 18.6037 107.944 18.8098C107.918 19.016 107.839 19.2028 107.708 19.3703C107.577 19.5379 107.406 19.6474 107.195 19.6989C106.998 19.7504 106.768 19.7247 106.506 19.6216C106.085 19.4283 105.697 19.293 105.343 19.2158C104.988 19.1256 104.646 19.0805 104.318 19.0805C103.726 19.0805 103.299 19.177 103.036 19.3703C102.774 19.5507 102.642 19.7826 102.642 20.0662C102.642 20.2851 102.715 20.472 102.859 20.6266C103.017 20.7683 103.253 20.865 103.569 20.9165L105.638 21.2838C106.492 21.4255 107.143 21.709 107.59 22.1341C108.036 22.5464 108.26 23.1135 108.26 23.8349C108.26 24.8142 107.866 25.5873 107.077 26.1543C106.302 26.7083 105.264 26.9854 103.963 26.9854ZM111.457 26.9466C110.97 26.9466 110.596 26.8178 110.333 26.5601C110.083 26.3024 109.959 25.9352 109.959 25.4585V14.4612C109.959 13.9716 110.083 13.6043 110.333 13.3595C110.596 13.1018 110.97 12.973 111.457 12.973C111.93 12.973 112.291 13.1018 112.541 13.3595C112.804 13.6043 112.935 13.9716 112.935 14.4612V19.0611H112.659C112.961 18.4298 113.408 17.9466 113.999 17.6115C114.604 17.2636 115.287 17.0897 116.049 17.0897C116.825 17.0897 117.462 17.2378 117.961 17.5343C118.461 17.8177 118.835 18.2558 119.085 18.8486C119.334 19.4283 119.459 20.1692 119.459 21.0711V25.4585C119.459 25.9352 119.328 26.3024 119.065 26.5601C118.815 26.8178 118.447 26.9466 117.961 26.9466C117.488 26.9466 117.12 26.8178 116.857 26.5601C116.608 26.3024 116.483 25.9352 116.483 25.4585V21.2064C116.483 20.5493 116.358 20.079 116.108 19.7956C115.872 19.4991 115.504 19.351 115.005 19.351C114.374 19.351 113.868 19.5442 113.487 19.9309C113.119 20.3174 112.935 20.8328 112.935 21.4771V25.4585C112.935 26.4506 112.442 26.9466 111.457 26.9466ZM125.566 26.9466C125.172 26.9466 124.837 26.8564 124.561 26.6761C124.285 26.4829 124.062 26.1801 123.891 25.7678L121.112 19.0224C120.967 18.6617 120.921 18.3459 120.974 18.0754C121.026 17.7919 121.164 17.5664 121.388 17.3989C121.624 17.2185 121.946 17.1283 122.354 17.1283C122.695 17.1283 122.978 17.2122 123.201 17.3796C123.425 17.5343 123.615 17.837 123.773 18.288L125.941 23.9509H125.488L127.735 18.0368C127.84 17.7275 127.991 17.502 128.188 17.3603C128.398 17.2057 128.668 17.1283 128.996 17.1283C129.325 17.1283 129.587 17.2057 129.785 17.3603C129.995 17.5149 130.159 17.7405 130.277 18.0368L132.485 23.9509H132.11L134.259 18.2107C134.417 17.7984 134.62 17.5149 134.87 17.3603C135.12 17.2057 135.389 17.1283 135.678 17.1283C136.046 17.1283 136.329 17.2185 136.526 17.3989C136.736 17.5794 136.854 17.8113 136.88 18.0947C136.92 18.3782 136.867 18.6875 136.723 19.0224L133.963 25.7678C133.806 26.1671 133.582 26.4634 133.293 26.6568C133.017 26.8501 132.682 26.9466 132.288 26.9466C131.907 26.9466 131.572 26.8501 131.283 26.6568C131.007 26.4634 130.783 26.1671 130.612 25.7678L128.247 19.7376H129.528L127.222 25.7483C127.065 26.1478 126.848 26.4506 126.572 26.6568C126.296 26.8501 125.961 26.9466 125.566 26.9466ZM141.642 26.9854C140.932 26.9854 140.295 26.8501 139.73 26.5794C139.165 26.3089 138.725 25.9416 138.409 25.4778C138.094 25.0139 137.936 24.4921 137.936 23.9123C137.936 23.2165 138.12 22.6689 138.488 22.2694C138.856 21.8571 139.454 21.5673 140.282 21.3997C141.11 21.2194 142.207 21.1292 143.573 21.1292H144.618V22.6366H143.593C142.923 22.6366 142.378 22.6754 141.957 22.7526C141.55 22.8171 141.254 22.933 141.07 23.1005C140.899 23.268 140.814 23.5 140.814 23.7963C140.814 24.157 140.939 24.4535 141.189 24.6854C141.451 24.9172 141.826 25.0332 142.312 25.0332C142.693 25.0332 143.028 24.9495 143.317 24.782C143.619 24.6016 143.856 24.3632 144.027 24.0668C144.198 23.7577 144.283 23.4098 144.283 23.0233V20.8006C144.283 20.2337 144.152 19.8342 143.889 19.6023C143.626 19.3575 143.179 19.2351 142.549 19.2351C142.194 19.2351 141.806 19.2802 141.386 19.3703C140.978 19.4477 140.525 19.583 140.026 19.7762C139.737 19.9051 139.48 19.9372 139.257 19.8728C139.033 19.7956 138.863 19.6667 138.744 19.4863C138.626 19.293 138.567 19.0868 138.567 18.8679C138.567 18.6359 138.633 18.4168 138.764 18.2107C138.895 17.9917 139.112 17.8306 139.414 17.7275C140.032 17.4827 140.61 17.3152 141.149 17.225C141.701 17.1348 142.207 17.0897 142.667 17.0897C143.679 17.0897 144.507 17.2378 145.151 17.5343C145.808 17.8177 146.301 18.2622 146.628 18.8679C146.957 19.4605 147.121 20.2272 147.121 21.1678V25.4585C147.121 25.9352 147.003 26.3024 146.766 26.5601C146.53 26.8178 146.188 26.9466 145.742 26.9466C145.295 26.9466 144.947 26.8178 144.697 26.5601C144.461 26.3024 144.342 25.9352 144.342 25.4585V24.7434L144.48 24.8593C144.401 25.2974 144.231 25.6774 143.968 25.9997C143.718 26.3089 143.396 26.5536 143.002 26.7341C142.608 26.9015 142.154 26.9854 141.642 26.9854ZM150.879 26.9466C150.38 26.9466 149.998 26.8178 149.736 26.5601C149.474 26.3024 149.341 25.9352 149.341 25.4585V18.5972C149.341 18.1205 149.466 17.7598 149.716 17.5149C149.979 17.2573 150.34 17.1283 150.8 17.1283C151.273 17.1283 151.635 17.2573 151.885 17.5149C152.133 17.7598 152.258 18.1205 152.258 18.5972V19.6023H152.062C152.22 18.8291 152.567 18.23 153.106 17.8048C153.645 17.3796 154.342 17.1413 155.196 17.0897C155.525 17.0639 155.773 17.1476 155.944 17.341C156.128 17.5213 156.228 17.8242 156.241 18.2494C156.266 18.6488 156.182 18.9645 155.985 19.1965C155.801 19.4283 155.485 19.57 155.038 19.6216L154.585 19.6602C153.836 19.7247 153.277 19.9372 152.909 20.2981C152.555 20.6588 152.378 21.1806 152.378 21.8636V25.4585C152.378 25.9352 152.246 26.3024 151.983 26.5601C151.733 26.8178 151.365 26.9466 150.879 26.9466Z" fill="white"/>
<path d="M87.0457 49.7527C86.5463 49.7527 86.1652 49.6175 85.9024 49.3468C85.6395 49.0762 85.5082 48.6962 85.5082 48.2066V38.4269H82.0193C81.6121 38.4269 81.2966 38.3174 81.0732 38.0983C80.8499 37.8793 80.7382 37.5765 80.7382 37.19C80.7382 36.7905 80.8499 36.4877 81.0732 36.2816C81.2966 36.0624 81.6121 35.953 82.0193 35.953H92.0522C92.4594 35.953 92.7749 36.0624 92.9982 36.2816C93.2217 36.4877 93.3333 36.7905 93.3333 37.19C93.3333 37.5765 93.2217 37.8793 92.9982 38.0983C92.7749 38.3174 92.4594 38.4269 92.0522 38.4269H88.5633V48.2066C88.5633 48.6962 88.432 49.0762 88.1692 49.3468C87.9194 49.6175 87.5449 49.7527 87.0457 49.7527ZM97.8616 49.7914C96.7184 49.7914 95.7327 49.5917 94.905 49.1922C94.0902 48.7799 93.4595 48.2065 93.0127 47.4721C92.5791 46.7247 92.3623 45.8486 92.3623 44.8436C92.3623 43.8643 92.5725 43.0074 92.993 42.273C93.4135 41.5258 93.9982 40.9459 94.7472 40.5336C95.5094 40.1084 96.3701 39.8957 97.3294 39.8957C98.0258 39.8957 98.6565 40.0117 99.2216 40.2436C99.7866 40.4627 100.273 40.7849 100.68 41.21C101.088 41.6223 101.396 42.1313 101.607 42.7369C101.817 43.3295 101.922 43.9932 101.922 44.7276C101.922 44.9724 101.843 45.1592 101.685 45.288C101.528 45.404 101.298 45.4621 100.996 45.4621H94.8064V43.9545H99.7736L99.4581 44.225C99.4581 43.6968 99.3792 43.2587 99.2216 42.9108C99.0639 42.55 98.834 42.2795 98.5317 42.0991C98.2427 41.9188 97.8813 41.8284 97.4477 41.8284C96.9614 41.8284 96.5475 41.9381 96.2058 42.157C95.8642 42.3762 95.6014 42.6918 95.4175 43.1041C95.2335 43.5164 95.1415 44.0125 95.1415 44.5924V44.7469C95.1415 45.7261 95.3715 46.4477 95.8313 46.9116C96.3044 47.3755 97.0009 47.6074 97.9206 47.6074C98.2361 47.6074 98.5975 47.5688 99.0047 47.4914C99.4121 47.4141 99.7932 47.2918 100.148 47.1242C100.45 46.9825 100.72 46.9374 100.956 46.989C101.193 47.0276 101.377 47.1307 101.508 47.2981C101.639 47.4656 101.712 47.659 101.725 47.878C101.751 48.0971 101.705 48.316 101.587 48.5352C101.469 48.7413 101.272 48.9152 100.996 49.0569C100.549 49.3017 100.043 49.4822 99.4778 49.5982C98.926 49.727 98.3872 49.7914 97.8616 49.7914ZM106.925 49.7914C106.216 49.7914 105.578 49.6561 105.013 49.3855C104.448 49.1148 104.008 48.7476 103.693 48.2839C103.377 47.82 103.219 47.2981 103.219 46.7183C103.219 46.0226 103.404 45.4749 103.771 45.0755C104.139 44.6632 104.737 44.3733 105.565 44.2057C106.393 44.0254 107.49 43.9352 108.857 43.9352H109.901V45.4428H108.876C108.206 45.4428 107.661 45.4814 107.241 45.5587C106.833 45.6231 106.537 45.7391 106.353 45.9066C106.183 46.074 106.097 46.306 106.097 46.6023C106.097 46.9632 106.222 47.2595 106.472 47.4914C106.735 47.7234 107.109 47.8393 107.595 47.8393C107.976 47.8393 108.311 47.7555 108.601 47.5881C108.903 47.4077 109.139 47.1693 109.31 46.873C109.481 46.5637 109.566 46.2158 109.566 45.8293V43.6066C109.566 43.0397 109.435 42.6402 109.172 42.4083C108.909 42.1635 108.463 42.0411 107.832 42.0411C107.477 42.0411 107.089 42.0862 106.669 42.1763C106.262 42.2537 105.808 42.389 105.309 42.5823C105.02 42.7111 104.764 42.7434 104.54 42.679C104.317 42.6016 104.146 42.4727 104.028 42.2923C103.909 42.0991 103.85 41.893 103.85 41.6739C103.85 41.4419 103.916 41.223 104.047 41.0168C104.179 40.7977 104.396 40.6366 104.698 40.5336C105.315 40.2887 105.894 40.1212 106.432 40.031C106.984 39.9408 107.49 39.8957 107.95 39.8957C108.962 39.8957 109.79 40.044 110.434 40.3403C111.091 40.6238 111.583 41.0682 111.912 41.6739C112.24 42.2665 112.405 43.0332 112.405 43.9738V48.2645C112.405 48.7413 112.286 49.1085 112.05 49.3662C111.813 49.6238 111.472 49.7527 111.025 49.7527C110.578 49.7527 110.23 49.6238 109.98 49.3662C109.744 49.1085 109.625 48.7413 109.625 48.2645V47.5494L109.763 47.6653C109.685 48.1034 109.514 48.4836 109.251 48.8057C109.001 49.1148 108.679 49.3598 108.285 49.5401C107.891 49.7077 107.438 49.7914 106.925 49.7914ZM119.336 49.7914C118.285 49.7914 117.365 49.5917 116.576 49.1922C115.801 48.7799 115.203 48.2001 114.783 47.4528C114.362 46.7054 114.152 45.8228 114.152 44.8049C114.152 44.0447 114.27 43.3618 114.507 42.7562C114.743 42.1506 115.085 41.6353 115.532 41.21C115.992 40.7849 116.543 40.4627 117.187 40.2436C117.831 40.0117 118.547 39.8957 119.336 39.8957C119.743 39.8957 120.177 39.9473 120.637 40.0504C121.097 40.1406 121.55 40.3017 121.997 40.5336C122.26 40.6496 122.437 40.817 122.529 41.0361C122.634 41.2423 122.674 41.4612 122.647 41.6932C122.621 41.9123 122.536 42.112 122.391 42.2923C122.26 42.4599 122.089 42.5758 121.879 42.6402C121.668 42.6918 121.432 42.6532 121.169 42.5242C120.919 42.3825 120.657 42.2795 120.38 42.2151C120.118 42.1506 119.868 42.1184 119.631 42.1184C119.237 42.1184 118.889 42.1828 118.587 42.3116C118.285 42.4276 118.028 42.6016 117.818 42.8335C117.621 43.0525 117.463 43.3295 117.345 43.6646C117.24 43.9996 117.187 44.3862 117.187 44.8243C117.187 45.6747 117.398 46.3447 117.818 46.8342C118.252 47.3111 118.856 47.5494 119.631 47.5494C119.868 47.5494 120.118 47.5236 120.38 47.4721C120.643 47.4077 120.906 47.3046 121.169 47.1628C121.432 47.034 121.668 47.0018 121.879 47.0662C122.089 47.1307 122.253 47.253 122.371 47.4334C122.503 47.6009 122.575 47.8006 122.588 48.0325C122.614 48.2516 122.575 48.4706 122.47 48.6897C122.378 48.8959 122.207 49.0569 121.957 49.1729C121.511 49.3919 121.064 49.5466 120.617 49.6368C120.17 49.7398 119.743 49.7914 119.336 49.7914ZM125.536 49.7527C125.049 49.7527 124.675 49.6238 124.412 49.3662C124.162 49.1085 124.038 48.7413 124.038 48.2645V37.2672C124.038 36.7776 124.162 36.4103 124.412 36.1656C124.675 35.9079 125.049 35.7791 125.536 35.7791C126.009 35.7791 126.37 35.9079 126.62 36.1656C126.882 36.4103 127.014 36.7776 127.014 37.2672V41.8672H126.738C127.04 41.2358 127.487 40.7526 128.078 40.4177C128.683 40.0698 129.366 39.8957 130.128 39.8957C130.903 39.8957 131.541 40.044 132.04 40.3403C132.54 40.6238 132.914 41.0619 133.164 41.6546C133.413 42.2344 133.538 42.9753 133.538 43.8773V48.2645C133.538 48.7413 133.407 49.1085 133.144 49.3662C132.894 49.6238 132.526 49.7527 132.04 49.7527C131.567 49.7527 131.199 49.6238 130.936 49.3662C130.687 49.1085 130.562 48.7413 130.562 48.2645V44.0125C130.562 43.3553 130.437 42.8851 130.187 42.6016C129.951 42.3053 129.583 42.157 129.084 42.157C128.453 42.157 127.947 42.3504 127.566 42.7369C127.198 43.1234 127.014 43.6388 127.014 44.2831V48.2645C127.014 49.2566 126.521 49.7527 125.536 49.7527ZM137.258 49.7334C136.772 49.7334 136.397 49.5982 136.135 49.3275C135.885 49.0441 135.76 48.6511 135.76 48.1485V41.5386C135.76 41.0231 135.885 40.6301 136.135 40.3596C136.397 40.0761 136.772 39.9345 137.258 39.9345C137.731 39.9345 138.093 40.0761 138.342 40.3596C138.605 40.6301 138.736 41.0231 138.736 41.5386V48.1485C138.736 48.6511 138.612 49.0441 138.362 49.3275C138.112 49.5982 137.744 49.7334 137.258 49.7334ZM137.258 38.3495C136.706 38.3495 136.279 38.2272 135.977 37.9823C135.688 37.7246 135.543 37.3639 135.543 36.9C135.543 36.4233 135.688 36.0624 135.977 35.8177C136.279 35.56 136.706 35.4312 137.258 35.4312C137.81 35.4312 138.231 35.56 138.52 35.8177C138.809 36.0624 138.953 36.4233 138.953 36.9C138.953 37.3639 138.809 37.7246 138.52 37.9823C138.231 38.2272 137.81 38.3495 137.258 38.3495ZM142.532 49.7527C142.046 49.7527 141.672 49.6238 141.409 49.3662C141.159 49.1085 141.034 48.7413 141.034 48.2645V41.4033C141.034 40.9266 141.159 40.5658 141.409 40.321C141.672 40.0633 142.033 39.9345 142.493 39.9345C142.966 39.9345 143.327 40.0633 143.577 40.321C143.827 40.5658 143.952 40.9266 143.952 41.4033V42.5049L143.735 41.8672C144.037 41.2358 144.484 40.7526 145.075 40.4177C145.68 40.0698 146.362 39.8957 147.125 39.8957C147.9 39.8957 148.538 40.044 149.037 40.3403C149.537 40.6238 149.91 41.0619 150.16 41.6546C150.41 42.2344 150.535 42.9753 150.535 43.8773V48.2645C150.535 48.7413 150.403 49.1085 150.14 49.3662C149.892 49.6238 149.522 49.7527 149.037 49.7527C148.564 49.7527 148.196 49.6238 147.933 49.3662C147.683 49.1085 147.558 48.7413 147.558 48.2645V44.0125C147.558 43.3553 147.434 42.8851 147.184 42.6016C146.947 42.3053 146.579 42.157 146.081 42.157C145.45 42.157 144.944 42.3504 144.563 42.7369C144.195 43.1234 144.011 43.6388 144.011 44.2831V48.2645C144.011 49.2566 143.518 49.7527 142.532 49.7527ZM157.409 53.2703C156.699 53.2703 156.015 53.2123 155.358 53.0964C154.714 52.9804 154.142 52.8064 153.644 52.5745C153.342 52.4457 153.125 52.2781 152.993 52.072C152.875 51.8658 152.822 51.6468 152.836 51.4149C152.862 51.183 152.941 50.9768 153.072 50.7965C153.217 50.616 153.394 50.4872 153.605 50.4098C153.815 50.3454 154.038 50.3647 154.275 50.4679C154.852 50.7256 155.386 50.893 155.871 50.9703C156.37 51.0477 156.798 51.0863 157.152 51.0863C157.994 51.0863 158.625 50.8995 159.044 50.5258C159.465 50.1522 159.675 49.5787 159.675 48.8057V47.3369H159.853C159.655 47.9295 159.248 48.4127 158.63 48.7864C158.012 49.1601 157.33 49.3468 156.581 49.3468C155.713 49.3468 154.957 49.1536 154.313 48.7671C153.67 48.3676 153.171 47.8136 152.816 47.1049C152.461 46.3833 152.284 45.5522 152.284 44.6117C152.284 43.9029 152.382 43.2587 152.579 42.679C152.79 42.0991 153.079 41.603 153.447 41.1907C153.828 40.7784 154.28 40.4627 154.806 40.2436C155.345 40.0117 155.937 39.8957 156.581 39.8957C157.356 39.8957 158.04 40.0826 158.63 40.4563C159.235 40.817 159.636 41.2938 159.833 41.8865L159.636 42.5049V41.4033C159.636 40.9266 159.761 40.5658 160.01 40.321C160.273 40.0633 160.641 39.9345 161.114 39.9345C161.588 39.9345 161.948 40.0633 162.199 40.321C162.449 40.5658 162.572 40.9266 162.572 41.4033V48.4771C162.572 50.0619 162.127 51.2539 161.233 52.0527C160.352 52.8644 159.077 53.2703 157.409 53.2703ZM157.468 47.1628C157.915 47.1628 158.296 47.0598 158.61 46.8537C158.939 46.6474 159.195 46.3575 159.379 45.9839C159.563 45.5973 159.655 45.1399 159.655 44.6117C159.655 43.8127 159.452 43.1943 159.044 42.7562C158.65 42.3053 158.125 42.0798 157.468 42.0798C157.021 42.0798 156.633 42.1828 156.305 42.389C155.976 42.5823 155.72 42.8722 155.536 43.2587C155.365 43.6324 155.279 44.0834 155.279 44.6117C155.279 45.4105 155.477 46.0354 155.871 46.4863C156.265 46.9374 156.798 47.1628 157.468 47.1628Z" fill="white"/>
<path d="M31.8789 23.1971L33.3199 15.5H62.0568L60.7005 23.3592H51.7149C51.7149 23.3592 49.8307 37.052 48.4089 40.374C46.9871 43.6958 43.9973 47.1878 38.5757 47.9091L42.8989 23.1971H31.8789Z" fill="#5453AF"/>
<path d="M23.5175 36.3517H16.0715V40.1238C17.0754 44.3058 19.3343 46.9299 24.3541 47.8318C30.7125 48.5699 36.5819 43.8958 38.0749 39.1398C39.5679 34.3837 40.5012 25.3636 40.5012 25.3636H32.1348L30.0432 36.3517C29.3739 41.4358 23.2665 41.1897 23.5175 36.3517Z" fill="#5453AF"/>
</svg>
