<svg width="718" height="240" viewBox="0 0 718 240" fill="none" xmlns="http://www.w3.org/2000/svg">
<g opacity="0.1">
<g clip-path="url(#clip0_256_32404)">
<path d="M1.77344 -254V608.987" stroke="white" stroke-width="0.654481"/>
<path d="M43.6602 -254V608.987" stroke="white" stroke-width="0.654481"/>
<path d="M85.5469 -254V608.987" stroke="white" stroke-width="0.654481"/>
<path d="M127.434 -254V608.987" stroke="white" stroke-width="0.654481"/>
<path d="M169.321 -254V608.987" stroke="white" stroke-width="0.654481"/>
<path d="M211.208 -254V608.987" stroke="white" stroke-width="0.654481"/>
<path d="M253.094 -254V608.987" stroke="white" stroke-width="0.654481"/>
<path d="M294.981 -254V608.987" stroke="white" stroke-width="0.654481"/>
<path d="M336.868 -254V608.987" stroke="white" stroke-width="0.654481"/>
<path d="M378.754 -254V608.987" stroke="white" stroke-width="0.654481"/>
<path d="M420.641 -254V608.987" stroke="white" stroke-width="0.654481"/>
<path d="M462.528 -254V608.987" stroke="white" stroke-width="0.654481"/>
<path d="M504.415 -254V608.987" stroke="white" stroke-width="0.654481"/>
<path d="M546.301 -254V608.987" stroke="white" stroke-width="0.654481"/>
<path d="M588.188 -254V608.987" stroke="white" stroke-width="0.654481"/>
<path d="M630.075 -254V608.987" stroke="white" stroke-width="0.654481"/>
<path d="M671.962 -254V608.987" stroke="white" stroke-width="0.654481"/>
<path d="M713.849 -254V608.987" stroke="white" stroke-width="0.654481"/>
</g>
<g clip-path="url(#clip1_256_32404)">
<path d="M-82 39.2073L780 39.2073" stroke="white" stroke-width="0.654481"/>
<path d="M-82 81.094L780 81.094" stroke="white" stroke-width="0.654481"/>
<path d="M-82 122.981L780 122.981" stroke="white" stroke-width="0.654481"/>
<path d="M-82 164.868L780 164.868" stroke="white" stroke-width="0.654481"/>
<path d="M-82 206.754L780 206.754" stroke="white" stroke-width="0.654481"/>
</g>
</g>
<g opacity="0.9">
<circle cx="432.44" cy="55.3938" r="0.680419" fill="white" fill-opacity="0.5"/>
<circle cx="73.2973" cy="205.941" r="0.866106" fill="white" fill-opacity="0.3"/>
<circle cx="418.84" cy="156.636" r="0.695447" fill="white" fill-opacity="0.5"/>
<circle cx="547.815" cy="0.871641" r="0.620176" fill="white" fill-opacity="0.4"/>
<circle cx="544.841" cy="38.7429" r="0.605185" fill="white" fill-opacity="0.5"/>
<circle cx="6.76957" cy="229.394" r="0.639683" fill="white" fill-opacity="0.6"/>
<circle cx="2.60843" cy="168.994" r="0.621616" fill="white" fill-opacity="0.6"/>
<circle cx="134.096" cy="100.393" r="0.690477" fill="white" fill-opacity="0.6"/>
<circle cx="625.41" cy="195.085" r="0.666448" fill="white" fill-opacity="0.4"/>
<circle cx="13.4037" cy="50.7392" r="0.76211" fill="white" fill-opacity="0.5"/>
<circle cx="524.794" cy="237.727" r="0.685602" fill="white" fill-opacity="0.6"/>
<circle cx="70.1681" cy="43.5704" r="0.69691" fill="white" fill-opacity="0.5"/>
<circle cx="502.885" cy="82.031" r="0.678941" fill="white" fill-opacity="0.4"/>
<circle cx="571.7" cy="44.2916" r="0.826282" fill="white" fill-opacity="0.6"/>
<circle cx="530.297" cy="22.4224" r="0.860139" fill="white" fill-opacity="0.4"/>
<circle cx="263.168" cy="102.191" r="0.711451" fill="white" fill-opacity="0.6"/>
<circle cx="592.393" cy="109.975" r="0.799864" fill="white" fill-opacity="0.4"/>
<circle cx="123.443" cy="115.196" r="0.693902" fill="white" fill-opacity="0.3"/>
<circle cx="373.826" cy="63.6721" r="0.671636" fill="white" fill-opacity="0.5"/>
<circle cx="2.12279" cy="28.8035" r="0.729233" fill="white" fill-opacity="0.4"/>
<circle cx="228.811" cy="96.2497" r="0.689881" fill="white" fill-opacity="0.5"/>
<circle cx="133.578" cy="152.562" r="0.765212" fill="white" fill-opacity="0.4"/>
<circle cx="473.92" cy="161.991" r="0.721777" fill="white" fill-opacity="0.3"/>
<circle cx="206.936" cy="78.5182" r="0.718168" fill="white" fill-opacity="0.6"/>
<circle cx="187.971" cy="228.267" r="0.696622" fill="white" fill-opacity="0.3"/>
<circle cx="355.043" cy="117.11" r="0.831583" fill="white" fill-opacity="0.4"/>
<circle cx="30.6138" cy="183.384" r="0.80469" fill="white" fill-opacity="0.5"/>
<circle cx="512.877" cy="37.5618" r="0.607945" fill="white" fill-opacity="0.3"/>
<circle cx="51.969" cy="235.523" r="0.848888" fill="white" fill-opacity="0.4"/>
<circle cx="36.466" cy="8.68301" r="0.735984" fill="white" fill-opacity="0.4"/>
<circle cx="537.138" cy="189.098" r="0.597967" fill="white" fill-opacity="0.3"/>
<circle cx="359.754" cy="191.674" r="0.806592" fill="white" fill-opacity="0.4"/>
<circle cx="78.5632" cy="88.0759" r="0.804401" fill="white" fill-opacity="0.4"/>
<circle cx="354.292" cy="26.9696" r="0.671462" fill="white" fill-opacity="0.6"/>
<circle cx="17.0543" cy="40.1817" r="0.859953" fill="white" fill-opacity="0.6"/>
<circle cx="397.125" cy="191.75" r="0.883488" fill="white" fill-opacity="0.4"/>
<circle cx="388.567" cy="6.78392" r="0.613019" fill="white" fill-opacity="0.4"/>
<circle cx="487.501" cy="198.658" r="0.687175" fill="white" fill-opacity="0.5"/>
<circle cx="243.772" cy="57.9323" r="0.85128" fill="white" fill-opacity="0.6"/>
<circle cx="495.986" cy="156.233" r="0.884105" fill="white" fill-opacity="0.6"/>
<circle cx="516.472" cy="74.8983" r="0.650285" fill="white" fill-opacity="0.5"/>
<circle cx="482.276" cy="141.93" r="0.788363" fill="white" fill-opacity="0.4"/>
<circle cx="271.557" cy="223.647" r="0.813803" fill="white" fill-opacity="0.3"/>
<circle cx="349.076" cy="38.3301" r="0.784446" fill="white" fill-opacity="0.3"/>
<circle cx="286.221" cy="75.5187" r="0.678364" fill="white" fill-opacity="0.4"/>
<circle cx="130.655" cy="216.532" r="0.802016" fill="white" fill-opacity="0.4"/>
<circle cx="56.6197" cy="211.758" r="0.763236" fill="white" fill-opacity="0.4"/>
<circle cx="491.201" cy="217.158" r="0.835339" fill="white" fill-opacity="0.5"/>
<circle cx="245.373" cy="84.9883" r="0.676482" fill="white" fill-opacity="0.6"/>
<circle cx="161.284" cy="16.291" r="0.648472" fill="white" fill-opacity="0.4"/>
<circle cx="523.168" cy="146.713" r="0.835605" fill="white" fill-opacity="0.5"/>
<circle cx="8.61861" cy="219.402" r="0.711873" fill="white" fill-opacity="0.5"/>
<circle cx="392.875" cy="105.809" r="0.777782" fill="white" fill-opacity="0.4"/>
<circle cx="594.192" cy="70.3344" r="0.821954" fill="white" fill-opacity="0.3"/>
<circle cx="326.602" cy="63.2134" r="0.804688" fill="white" fill-opacity="0.5"/>
<circle cx="463.214" cy="195.091" r="0.671573" fill="white" fill-opacity="0.4"/>
<circle cx="120.592" cy="124.185" r="0.803196" fill="white" fill-opacity="0.5"/>
<circle cx="156.784" cy="57.3721" r="0.883131" fill="white" fill-opacity="0.5"/>
<circle cx="172.61" cy="100.43" r="0.727048" fill="white" fill-opacity="0.6"/>
<circle cx="103.969" cy="57.2439" r="0.754837" fill="white" fill-opacity="0.5"/>
<circle cx="414.605" cy="68.9329" r="0.604492" fill="white" fill-opacity="0.3"/>
<circle cx="27.4631" cy="101.501" r="0.614002" fill="white" fill-opacity="0.4"/>
<circle cx="570.975" cy="225.893" r="0.691526" fill="white" fill-opacity="0.5"/>
<circle cx="446.686" cy="12.81" r="0.718907" fill="white" fill-opacity="0.6"/>
<circle cx="181.561" cy="31.2404" r="0.798039" fill="white" fill-opacity="0.6"/>
<circle cx="437.866" cy="31.2209" r="0.778497" fill="white" fill-opacity="0.5"/>
<circle cx="39.9863" cy="0.957038" r="0.705573" fill="white" fill-opacity="0.3"/>
<circle cx="97.5509" cy="59.7057" r="0.848304" fill="white" fill-opacity="0.5"/>
<circle cx="463.843" cy="4.51135" r="0.707881" fill="white" fill-opacity="0.5"/>
<circle cx="507.195" cy="22.4086" r="0.846316" fill="white" fill-opacity="0.4"/>
<circle cx="289.733" cy="57.7189" r="0.637861" fill="white" fill-opacity="0.5"/>
<circle cx="180.299" cy="64.9044" r="0.719579" fill="white" fill-opacity="0.5"/>
<circle cx="-0.777561" cy="166.201" r="0.788845" fill="white" fill-opacity="0.4"/>
<circle cx="267.43" cy="137.828" r="0.830232" fill="white" fill-opacity="0.4"/>
<circle cx="337.085" cy="1.47613" r="0.632627" fill="white" fill-opacity="0.5"/>
<circle cx="384.468" cy="217.571" r="0.656771" fill="white" fill-opacity="0.4"/>
<circle cx="58.9971" cy="75.022" r="0.773981" fill="white" fill-opacity="0.3"/>
<circle cx="616.5" cy="33.4447" r="0.634601" fill="white" fill-opacity="0.4"/>
<circle cx="78.3735" cy="9.15379" r="0.614725" fill="white" fill-opacity="0.3"/>
<circle cx="121.202" cy="76.2526" r="0.820446" fill="white" fill-opacity="0.5"/>
<circle cx="546.755" cy="50.1284" r="0.74315" fill="white" fill-opacity="0.4"/>
<circle cx="125.12" cy="5.58126" r="0.593954" fill="white" fill-opacity="0.6"/>
<circle cx="584.509" cy="98.5378" r="0.610576" fill="white" fill-opacity="0.3"/>
<circle cx="53.0762" cy="109.946" r="0.771508" fill="white" fill-opacity="0.3"/>
<circle cx="246.023" cy="161.412" r="0.734636" fill="white" fill-opacity="0.5"/>
<circle cx="624.834" cy="26.3893" r="0.682976" fill="white" fill-opacity="0.3"/>
<circle cx="126.992" cy="101.579" r="0.692114" fill="white" fill-opacity="0.5"/>
</g>
<g clip-path="url(#clip2_256_32404)">
<path d="M535.201 115.501L548.872 122.087V133.05C548.872 133.972 549.401 134.813 550.231 135.213L576.387 147.812C576.712 147.968 577.068 148.05 577.429 148.05H581.824C582.185 148.05 582.54 147.968 582.866 147.812L608.949 135.247C609.455 135.004 609.859 134.591 610.092 134.08C610.124 134.008 610.156 133.935 610.187 133.862C610.314 133.564 610.38 133.243 610.38 132.919V122.087L614.109 120.29V135.157C613.302 135.695 612.68 136.501 612.379 137.482L610.257 144.396C609.996 145.249 610.003 146.149 610.278 146.997L612.246 153.061C612.807 154.791 614.405 155.991 616.223 156.047C616.235 156.047 616.247 156.047 616.259 156.048L616.319 156.049C616.331 156.049 616.344 156.049 616.357 156.049C618.143 156.049 619.721 154.974 620.376 153.312L622.651 147.536C623.003 146.646 623.047 145.65 622.776 144.731L620.655 137.529C620.359 136.525 619.732 135.701 618.911 135.154V117.978L624.09 115.483C624.921 115.082 625.449 114.242 625.449 113.32V111.408C625.449 110.486 624.921 109.645 624.09 109.245L580.668 88.3289C580.009 88.0118 579.242 88.0118 578.584 88.3289L535.201 109.227C534.37 109.627 533.842 110.468 533.842 111.39V113.338C533.842 114.26 534.37 115.101 535.201 115.501ZM616.4 150.308L614.892 145.66L616.5 140.418L618.124 145.93L616.4 150.308ZM605.579 131.542L581.276 143.249H577.977L553.674 131.542V124.4L578.584 136.399C578.914 136.558 579.27 136.637 579.626 136.637C579.983 136.637 580.339 136.558 580.668 136.399L605.579 124.4L605.579 131.542ZM579.626 93.1561L619.501 112.364L607.255 118.263C607.148 118.297 607.041 118.337 606.937 118.387L579.626 131.543L552.315 118.387C552.211 118.337 552.105 118.297 551.997 118.263L539.751 112.364L579.626 93.1561Z" fill="white" fill-opacity="0.6"/>
</g>
<g clip-path="url(#clip3_256_32404)">
<path d="M618.653 30.5821L625.825 34.0369V39.7882C625.825 40.2719 626.102 40.7128 626.538 40.9228L640.259 47.5322C640.43 47.6142 640.616 47.6568 640.806 47.6568H643.111C643.301 47.6568 643.487 47.6142 643.658 47.5322L657.341 40.9409C657.606 40.813 657.818 40.5964 657.94 40.3285C657.958 40.2907 657.974 40.2525 657.99 40.2142C658.057 40.0579 658.092 39.8895 658.092 39.7196V34.0368L660.048 33.0945V40.8934C659.625 41.1756 659.298 41.5984 659.14 42.1133L658.027 45.7403C657.89 46.1876 657.894 46.6595 658.038 47.1046L659.07 50.286C659.365 51.1934 660.203 51.8228 661.157 51.8521C661.163 51.8523 661.169 51.8524 661.176 51.8525L661.207 51.853C661.214 51.8531 661.22 51.8531 661.227 51.8531C662.164 51.8531 662.992 51.2895 663.336 50.4171L664.529 47.3875C664.713 46.9204 664.737 46.3978 664.595 45.9161L663.482 42.1379C663.327 41.6111 662.998 41.1786 662.567 40.8919V31.8814L665.284 30.5725C665.72 30.3625 665.997 29.9217 665.997 29.4379V28.435C665.997 27.9513 665.72 27.5103 665.284 27.3004L642.505 16.3279C642.159 16.1615 641.757 16.1615 641.412 16.3279L618.653 27.2908C618.217 27.5007 617.94 27.9416 617.94 28.4254V29.4476C617.94 29.9312 618.217 30.3721 618.653 30.5821ZM661.25 48.8414L660.458 46.4031L661.302 43.6533L662.154 46.5451L661.25 48.8414ZM655.573 38.997L642.824 45.1384H641.093L628.344 38.997V35.2503L641.412 41.5452C641.585 41.6284 641.771 41.6699 641.958 41.6699C642.145 41.6699 642.332 41.6284 642.505 41.5452L655.573 35.2504L655.573 38.997ZM641.958 18.8602L662.876 28.9365L656.453 32.0309C656.396 32.0488 656.34 32.0699 656.286 32.096L641.958 38.9976L627.631 32.096C627.577 32.0699 627.521 32.0488 627.465 32.0309L621.041 28.9364L641.958 18.8602Z" fill="white" fill-opacity="0.1"/>
</g>
<g clip-path="url(#clip4_256_32404)">
<path d="M712.478 174.963L704.185 178.957V185.607C704.185 186.167 703.864 186.677 703.361 186.919L687.496 194.561C687.299 194.656 687.083 194.705 686.864 194.705H684.198C683.979 194.705 683.763 194.656 683.566 194.561L667.745 186.94C667.438 186.792 667.193 186.542 667.052 186.232C667.032 186.188 667.013 186.144 666.994 186.1C666.917 185.919 666.877 185.725 666.877 185.528V178.957L664.615 177.868V186.885C665.104 187.212 665.482 187.7 665.664 188.296L666.951 192.49C667.11 193.007 667.106 193.552 666.939 194.067L665.745 197.745C665.405 198.795 664.435 199.522 663.333 199.556C663.326 199.556 663.318 199.557 663.311 199.557L663.275 199.557C663.267 199.557 663.259 199.557 663.252 199.557C662.168 199.557 661.211 198.906 660.814 197.897L659.434 194.394C659.221 193.854 659.194 193.25 659.358 192.693L660.645 188.324C660.824 187.715 661.204 187.215 661.703 186.884V176.465L658.561 174.952C658.057 174.709 657.737 174.199 657.737 173.64V172.48C657.737 171.921 658.057 171.411 658.561 171.168L684.899 158.481C685.299 158.289 685.764 158.289 686.163 158.481L712.478 171.157C712.981 171.4 713.302 171.91 713.302 172.469V173.651C713.302 174.21 712.981 174.72 712.478 174.963ZM663.226 196.075L664.14 193.256L663.165 190.076L662.18 193.42L663.226 196.075ZM669.789 184.693L684.53 191.794H686.532L701.273 184.693V180.36L686.163 187.639C685.963 187.735 685.747 187.783 685.531 187.783C685.315 187.783 685.099 187.735 684.899 187.639L669.789 180.361L669.789 184.693ZM685.531 161.409L661.345 173.06L668.772 176.638C668.838 176.659 668.902 176.683 668.965 176.713L685.531 184.693L702.097 176.713C702.16 176.683 702.224 176.659 702.29 176.638L709.717 173.06L685.531 161.409Z" fill="white" fill-opacity="0.4"/>
</g>
<g clip-path="url(#clip5_256_32404)">
<path d="M455.579 201.677L461.407 204.484V209.157C461.407 209.55 461.632 209.909 461.986 210.079L473.134 215.449C473.272 215.516 473.424 215.551 473.578 215.551H475.451C475.605 215.551 475.757 215.516 475.895 215.449L487.013 210.094C487.228 209.99 487.401 209.814 487.5 209.596C487.514 209.566 487.527 209.535 487.541 209.503C487.595 209.376 487.623 209.24 487.623 209.102V204.484L489.212 203.719V210.055C488.868 210.284 488.603 210.628 488.475 211.046L487.57 213.993C487.459 214.357 487.462 214.74 487.579 215.102L488.418 217.687C488.657 218.424 489.339 218.935 490.113 218.959C490.118 218.959 490.123 218.959 490.129 218.959L490.154 218.96C490.16 218.96 490.165 218.96 490.17 218.96C490.932 218.96 491.604 218.502 491.884 217.793L492.853 215.332C493.003 214.952 493.022 214.528 492.907 214.136L492.002 211.066C491.876 210.638 491.609 210.287 491.259 210.054V202.733L493.466 201.669C493.821 201.499 494.046 201.141 494.046 200.748V199.933C494.046 199.54 493.821 199.181 493.466 199.011L474.959 190.096C474.678 189.961 474.351 189.961 474.071 190.096L455.579 199.003C455.225 199.174 455 199.532 455 199.925V200.755C455 201.148 455.225 201.507 455.579 201.677ZM490.189 216.513L489.546 214.532L490.231 212.298L490.924 214.647L490.189 216.513ZM485.576 208.514L475.218 213.504H473.812L463.453 208.514V205.47L474.071 210.585C474.211 210.652 474.363 210.686 474.515 210.686C474.667 210.686 474.818 210.652 474.959 210.585L485.576 205.47L485.576 208.514ZM474.515 192.153L491.51 200.34L486.291 202.854C486.245 202.869 486.2 202.886 486.156 202.907L474.515 208.515L462.874 202.907C462.83 202.886 462.784 202.869 462.738 202.854L457.519 200.34L474.515 192.153Z" fill="white" fill-opacity="0.2"/>
</g>
<defs>
<clipPath id="clip0_256_32404">
<rect width="862" height="557" fill="white" transform="translate(-82 -254)"/>
</clipPath>
<clipPath id="clip1_256_32404">
<rect width="862" height="557" fill="white" transform="translate(-82 -254)"/>
</clipPath>
<clipPath id="clip2_256_32404">
<rect width="91.607" height="91.607" fill="white" transform="translate(533.842 76.0771)"/>
</clipPath>
<clipPath id="clip3_256_32404">
<rect width="48.0561" height="48.0561" fill="white" transform="translate(617.94 10)"/>
</clipPath>
<clipPath id="clip4_256_32404">
<rect width="55.5649" height="55.5649" fill="white" transform="matrix(-1 0 0 1 713.302 151.165)"/>
</clipPath>
<clipPath id="clip5_256_32404">
<rect width="39.0456" height="39.0456" fill="white" transform="translate(455 184.954)"/>
</clipPath>
</defs>
</svg>
