<svg width="26" height="34" viewBox="0 0 26 34" fill="none" xmlns="http://www.w3.org/2000/svg">
<path d="M13.0002 25.9167C13.84 25.9167 14.6455 25.5831 15.2393 24.9892C15.8332 24.3953 16.1668 23.5899 16.1668 22.75C16.1668 21.9102 15.8332 21.1047 15.2393 20.5109C14.6455 19.917 13.84 19.5834 13.0002 19.5834C12.1603 19.5834 11.3549 19.917 10.761 20.5109C10.1671 21.1047 9.8335 21.9102 9.8335 22.75C9.8335 23.5899 10.1671 24.3953 10.761 24.9892C11.3549 25.5831 12.1603 25.9167 13.0002 25.9167ZM22.5002 11.6667C23.34 11.6667 24.1455 12.0003 24.7393 12.5942C25.3332 13.1881 25.6668 13.9935 25.6668 14.8334V30.6667C25.6668 31.5066 25.3332 32.312 24.7393 32.9059C24.1455 33.4997 23.34 33.8334 22.5002 33.8334H3.50016C2.66031 33.8334 1.85486 33.4997 1.26099 32.9059C0.667126 32.312 0.333496 31.5066 0.333496 30.6667V14.8334C0.333496 13.9935 0.667126 13.1881 1.26099 12.5942C1.85486 12.0003 2.66031 11.6667 3.50016 11.6667H5.0835V8.50004C5.0835 6.40041 5.91757 4.38678 7.40223 2.90211C8.8869 1.41745 10.9005 0.583374 13.0002 0.583374C14.0398 0.583374 15.0692 0.788145 16.0297 1.18599C16.9902 1.58384 17.863 2.16698 18.5981 2.90211C19.3332 3.63724 19.9164 4.50997 20.3142 5.47046C20.7121 6.43096 20.9168 7.46041 20.9168 8.50004V11.6667H22.5002ZM13.0002 3.75004C11.7404 3.75004 10.5322 4.25049 9.64141 5.14128C8.75061 6.03208 8.25016 7.24026 8.25016 8.50004V11.6667H17.7502V8.50004C17.7502 7.24026 17.2497 6.03208 16.3589 5.14128C15.4681 4.25049 14.2599 3.75004 13.0002 3.75004Z" fill="#5C5BC0"/>
</svg>
